<svg xmlns="http://www.w3.org/2000/svg" xmlns:xlink="http://www.w3.org/1999/xlink" width="540" zoomAndPan="magnify" viewBox="0 0 404.88 165.000002" height="220" preserveAspectRatio="xMidYMid meet" version="1.0"><defs><g/><clipPath id="ffb3d6e80d"><path d="M 54 45 L 137 45 L 137 131.628906 L 54 131.628906 Z M 54 45 " clip-rule="nonzero"/></clipPath><clipPath id="283eaf44be"><path d="M 106 45 L 189 45 L 189 131.628906 L 106 131.628906 Z M 106 45 " clip-rule="nonzero"/></clipPath><clipPath id="1567535cef"><path d="M 328 47 L 398.691406 47 L 398.691406 107 L 328 107 Z M 328 47 " clip-rule="nonzero"/></clipPath><clipPath id="faf1c60184"><rect x="0" width="399" y="0" height="132"/></clipPath></defs><g transform="matrix(1, 0, 0, 1, 3, 22)"><g clip-path="url(#faf1c60184)"><g fill="#ffffff" fill-opacity="1"><g transform="translate(3.740623, 106.052379)"><g><path d="M 69.390625 -33.09375 C 69.921875 -34.894531 70.820312 -36.210938 72.09375 -37.046875 C 73.363281 -37.878906 74.664062 -38.296875 76 -38.296875 C 77.539062 -38.296875 78.910156 -37.828125 80.109375 -36.890625 C 81.316406 -35.960938 81.921875 -34.628906 81.921875 -32.890625 C 81.921875 -32.085938 81.785156 -31.316406 81.515625 -30.578125 C 79.515625 -24.566406 77.054688 -19.253906 74.140625 -14.640625 C 71.234375 -10.023438 67.820312 -6.429688 63.90625 -3.859375 C 60 -1.285156 55.539062 0 50.53125 0 C 47.1875 0 44.09375 -0.632812 41.25 -1.90625 C 38.414062 -3.175781 36.128906 -5.046875 34.390625 -7.515625 C 31.921875 -5.046875 29.128906 -3.175781 26.015625 -1.90625 C 22.910156 -0.632812 19.882812 0 16.9375 0 C 13.269531 0 9.945312 -0.785156 6.96875 -2.359375 C 3.988281 -3.929688 1.632812 -6.085938 -0.09375 -8.828125 C -1.832031 -11.566406 -2.703125 -14.707031 -2.703125 -18.25 C -2.703125 -20.65625 -2.234375 -23.160156 -1.296875 -25.765625 L 15.046875 -71.796875 C 16.179688 -75.003906 17.929688 -77.742188 20.296875 -80.015625 C 22.671875 -82.285156 25.394531 -84.019531 28.46875 -85.21875 C 31.550781 -86.425781 34.726562 -87.03125 38 -87.03125 C 39.46875 -87.03125 41.101562 -86.84375 42.90625 -86.46875 C 44.71875 -86.101562 46.457031 -85.503906 48.125 -84.671875 C 49.800781 -83.835938 51.140625 -82.648438 52.140625 -81.109375 C 52.941406 -83.316406 54.296875 -84.988281 56.203125 -86.125 C 58.109375 -87.257812 60.03125 -87.828125 61.96875 -87.828125 C 63.832031 -87.828125 65.484375 -87.273438 66.921875 -86.171875 C 68.359375 -85.078125 69.078125 -83.359375 69.078125 -81.015625 C 69.078125 -79.742188 68.78125 -78.238281 68.1875 -76.5 L 48.625 -21.859375 C 47.894531 -19.847656 47.53125 -18.144531 47.53125 -16.75 C 47.53125 -15.40625 47.910156 -14.382812 48.671875 -13.6875 C 49.441406 -12.988281 50.460938 -12.640625 51.734375 -12.640625 C 55.015625 -12.640625 58.207031 -14.472656 61.3125 -18.140625 C 64.414062 -21.816406 67.109375 -26.800781 69.390625 -33.09375 Z M 20.359375 -15.140625 C 22.085938 -15.140625 23.753906 -15.503906 25.359375 -16.234375 C 26.972656 -16.972656 28.546875 -18.328125 30.078125 -20.296875 C 31.617188 -22.273438 33.023438 -25.101562 34.296875 -28.78125 L 46.328125 -62.5625 C 46.453125 -62.894531 46.546875 -63.242188 46.609375 -63.609375 C 46.679688 -63.984375 46.71875 -64.335938 46.71875 -64.671875 C 46.71875 -66.742188 45.863281 -68.5625 44.15625 -70.125 C 42.457031 -71.695312 40.472656 -72.484375 38.203125 -72.484375 C 36.191406 -72.484375 34.367188 -71.796875 32.734375 -70.421875 C 31.097656 -69.054688 29.847656 -67.207031 28.984375 -64.875 L 15.140625 -25.46875 C 14.609375 -23.863281 14.34375 -22.492188 14.34375 -21.359375 C 14.34375 -19.554688 14.875 -18.066406 15.9375 -16.890625 C 17.007812 -15.722656 18.484375 -15.140625 20.359375 -15.140625 Z M 20.359375 -15.140625 "/></g></g></g><g clip-path="url(#ffb3d6e80d)"><g fill="#ffffff" fill-opacity="1"><g transform="translate(68.903867, 106.052379)"><g><path d="M 54.640625 -28.875 C 55.242188 -30.8125 56.210938 -32.210938 57.546875 -33.078125 C 58.890625 -33.953125 60.226562 -34.390625 61.5625 -34.390625 C 63.101562 -34.390625 64.457031 -33.921875 65.625 -32.984375 C 66.789062 -32.046875 67.375 -30.742188 67.375 -29.078125 C 67.375 -28.472656 67.207031 -27.671875 66.875 -26.671875 C 63.601562 -17.179688 58.457031 -10.363281 51.4375 -6.21875 C 44.414062 -2.070312 36.023438 0 26.265625 0 C 17.847656 0 12.035156 -1.234375 8.828125 -3.703125 L 0.796875 20.046875 C 0.203125 21.921875 -0.828125 23.273438 -2.296875 24.109375 C -3.773438 24.953125 -5.347656 25.375 -7.015625 25.375 C -8.816406 25.375 -10.4375 24.851562 -11.875 23.8125 C -13.3125 22.78125 -14.03125 21.226562 -14.03125 19.15625 C -14.03125 18.082031 -13.796875 16.941406 -13.328125 15.734375 L 11.625 -54.84375 C 12.363281 -56.976562 13.46875 -58.515625 14.9375 -59.453125 C 16.40625 -60.390625 17.976562 -60.859375 19.65625 -60.859375 C 21.457031 -60.859375 23.0625 -60.441406 24.46875 -59.609375 C 25.875 -58.773438 26.507812 -57.753906 26.375 -56.546875 C 27.507812 -57.484375 28.8125 -58.101562 30.28125 -58.40625 C 31.75 -58.707031 33.148438 -58.859375 34.484375 -58.859375 C 37.097656 -58.859375 39.503906 -58.171875 41.703125 -56.796875 C 43.910156 -55.429688 45.679688 -53.609375 47.015625 -51.328125 C 48.359375 -49.054688 49.03125 -46.550781 49.03125 -43.8125 C 49.03125 -42.070312 48.726562 -40.335938 48.125 -38.609375 C 46.71875 -34.722656 45.296875 -30.757812 43.859375 -26.71875 C 42.421875 -22.675781 41.003906 -18.75 39.609375 -14.9375 L 38.703125 -12.828125 C 42.179688 -14.097656 45.304688 -16.070312 48.078125 -18.75 C 50.847656 -21.425781 53.035156 -24.800781 54.640625 -28.875 Z M 14.140625 -18.453125 C 13.867188 -17.710938 13.734375 -16.941406 13.734375 -16.140625 C 13.734375 -14.734375 14.179688 -13.679688 15.078125 -12.984375 C 15.984375 -12.285156 17.070312 -11.9375 18.34375 -11.9375 C 19.6875 -12 20.972656 -12.460938 22.203125 -13.328125 C 23.441406 -14.203125 24.328125 -15.375 24.859375 -16.84375 C 26.203125 -20.789062 27.554688 -24.648438 28.921875 -28.421875 C 30.296875 -32.203125 31.617188 -36.0625 32.890625 -40 C 33.222656 -41.132812 33.390625 -42.070312 33.390625 -42.8125 C 33.390625 -44.082031 32.921875 -45.101562 31.984375 -45.875 C 31.046875 -46.644531 29.976562 -47.03125 28.78125 -47.03125 C 27.375 -47.03125 26.066406 -46.59375 24.859375 -45.71875 C 23.660156 -44.851562 22.757812 -43.515625 22.15625 -41.703125 Z M 14.140625 -18.453125 "/></g></g></g></g><g clip-path="url(#283eaf44be)"><g fill="#ffffff" fill-opacity="1"><g transform="translate(120.934234, 106.052379)"><g><path d="M 54.640625 -28.875 C 55.242188 -30.8125 56.210938 -32.210938 57.546875 -33.078125 C 58.890625 -33.953125 60.226562 -34.390625 61.5625 -34.390625 C 63.101562 -34.390625 64.457031 -33.921875 65.625 -32.984375 C 66.789062 -32.046875 67.375 -30.742188 67.375 -29.078125 C 67.375 -28.472656 67.207031 -27.671875 66.875 -26.671875 C 63.601562 -17.179688 58.457031 -10.363281 51.4375 -6.21875 C 44.414062 -2.070312 36.023438 0 26.265625 0 C 17.847656 0 12.035156 -1.234375 8.828125 -3.703125 L 0.796875 20.046875 C 0.203125 21.921875 -0.828125 23.273438 -2.296875 24.109375 C -3.773438 24.953125 -5.347656 25.375 -7.015625 25.375 C -8.816406 25.375 -10.4375 24.851562 -11.875 23.8125 C -13.3125 22.78125 -14.03125 21.226562 -14.03125 19.15625 C -14.03125 18.082031 -13.796875 16.941406 -13.328125 15.734375 L 11.625 -54.84375 C 12.363281 -56.976562 13.46875 -58.515625 14.9375 -59.453125 C 16.40625 -60.390625 17.976562 -60.859375 19.65625 -60.859375 C 21.457031 -60.859375 23.0625 -60.441406 24.46875 -59.609375 C 25.875 -58.773438 26.507812 -57.753906 26.375 -56.546875 C 27.507812 -57.484375 28.8125 -58.101562 30.28125 -58.40625 C 31.75 -58.707031 33.148438 -58.859375 34.484375 -58.859375 C 37.097656 -58.859375 39.503906 -58.171875 41.703125 -56.796875 C 43.910156 -55.429688 45.679688 -53.609375 47.015625 -51.328125 C 48.359375 -49.054688 49.03125 -46.550781 49.03125 -43.8125 C 49.03125 -42.070312 48.726562 -40.335938 48.125 -38.609375 C 46.71875 -34.722656 45.296875 -30.757812 43.859375 -26.71875 C 42.421875 -22.675781 41.003906 -18.75 39.609375 -14.9375 L 38.703125 -12.828125 C 42.179688 -14.097656 45.304688 -16.070312 48.078125 -18.75 C 50.847656 -21.425781 53.035156 -24.800781 54.640625 -28.875 Z M 14.140625 -18.453125 C 13.867188 -17.710938 13.734375 -16.941406 13.734375 -16.140625 C 13.734375 -14.734375 14.179688 -13.679688 15.078125 -12.984375 C 15.984375 -12.285156 17.070312 -11.9375 18.34375 -11.9375 C 19.6875 -12 20.972656 -12.460938 22.203125 -13.328125 C 23.441406 -14.203125 24.328125 -15.375 24.859375 -16.84375 C 26.203125 -20.789062 27.554688 -24.648438 28.921875 -28.421875 C 30.296875 -32.203125 31.617188 -36.0625 32.890625 -40 C 33.222656 -41.132812 33.390625 -42.070312 33.390625 -42.8125 C 33.390625 -44.082031 32.921875 -45.101562 31.984375 -45.875 C 31.046875 -46.644531 29.976562 -47.03125 28.78125 -47.03125 C 27.375 -47.03125 26.066406 -46.59375 24.859375 -45.71875 C 23.660156 -44.851562 22.757812 -43.515625 22.15625 -41.703125 Z M 14.140625 -18.453125 "/></g></g></g></g><g fill="#ffffff" fill-opacity="1"><g transform="translate(172.964601, 106.052379)"><g><path d="M 54.4375 -31.890625 C 54.84375 -33.085938 55.546875 -33.953125 56.546875 -34.484375 C 57.546875 -35.023438 58.582031 -35.296875 59.65625 -35.296875 C 61.332031 -35.296875 62.882812 -34.8125 64.3125 -33.84375 C 65.75 -32.875 66.46875 -31.550781 66.46875 -29.875 C 66.46875 -29.40625 66.367188 -28.875 66.171875 -28.28125 C 64.972656 -24.46875 63.085938 -21.238281 60.515625 -18.59375 C 57.941406 -15.957031 54.960938 -13.953125 51.578125 -12.578125 C 48.203125 -11.210938 44.742188 -10.53125 41.203125 -10.53125 C 39.867188 -10.53125 38.601562 -10.628906 37.40625 -10.828125 C 35.257812 -6.816406 32.347656 -4.007812 28.671875 -2.40625 C 24.992188 -0.800781 21.316406 0 17.640625 0 C 14.304688 0 11.179688 -0.632812 8.265625 -1.90625 C 5.359375 -3.175781 3.019531 -5.046875 1.25 -7.515625 C -0.519531 -9.992188 -1.40625 -13.070312 -1.40625 -16.75 C -1.40625 -19.28125 -0.9375 -21.851562 0 -24.46875 C 2.132812 -30.6875 4.253906 -36.785156 6.359375 -42.765625 C 8.472656 -48.742188 10.628906 -54.859375 12.828125 -61.109375 C 15.035156 -67.359375 17.34375 -73.992188 19.75 -81.015625 C 20.488281 -83.085938 21.539062 -84.609375 22.90625 -85.578125 C 24.28125 -86.546875 25.734375 -87.03125 27.265625 -87.03125 C 29.003906 -87.03125 30.59375 -86.460938 32.03125 -85.328125 C 33.46875 -84.191406 34.1875 -82.550781 34.1875 -80.40625 C 34.1875 -79.875 34.117188 -79.320312 33.984375 -78.75 C 33.859375 -78.1875 33.691406 -77.570312 33.484375 -76.90625 L 26.96875 -58.15625 C 28.4375 -58.625 30.039062 -58.859375 31.78125 -58.859375 C 34.726562 -58.859375 37.4375 -58.171875 39.90625 -56.796875 C 42.375 -55.429688 44.34375 -53.523438 45.8125 -51.078125 C 47.289062 -48.640625 48.03125 -45.785156 48.03125 -42.515625 C 48.03125 -40.035156 47.523438 -37.425781 46.515625 -34.6875 L 42.015625 -22.453125 L 42.515625 -22.453125 C 45.179688 -22.453125 47.566406 -23.304688 49.671875 -25.015625 C 51.785156 -26.722656 53.375 -29.015625 54.4375 -31.890625 Z M 24.671875 -17.25 C 22.523438 -19.71875 21.453125 -22.425781 21.453125 -25.375 C 21.453125 -27.90625 22.304688 -30.054688 24.015625 -31.828125 C 25.722656 -33.597656 27.8125 -34.484375 30.28125 -34.484375 C 30.613281 -34.484375 30.726562 -34.515625 30.625 -34.578125 C 30.53125 -34.648438 30.613281 -34.617188 30.875 -34.484375 L 32.984375 -40.5 C 33.253906 -41.238281 33.390625 -42.007812 33.390625 -42.8125 C 33.390625 -44.082031 32.988281 -45.101562 32.1875 -45.875 C 31.382812 -46.644531 30.316406 -47.03125 28.984375 -47.03125 C 27.503906 -47.03125 26.03125 -46.457031 24.5625 -45.3125 C 23.09375 -44.175781 21.859375 -42.675781 20.859375 -40.8125 C 19.585938 -37 18.347656 -33.40625 17.140625 -30.03125 C 15.941406 -26.65625 14.671875 -23.09375 13.328125 -19.34375 C 13.128906 -18.8125 12.992188 -18.296875 12.921875 -17.796875 C 12.859375 -17.296875 12.828125 -16.8125 12.828125 -16.34375 C 12.828125 -14.9375 13.257812 -13.847656 14.125 -13.078125 C 15 -12.316406 16.171875 -11.9375 17.640625 -11.9375 C 18.984375 -11.9375 20.304688 -12.269531 21.609375 -12.9375 C 22.910156 -13.601562 23.863281 -14.769531 24.46875 -16.4375 Z M 24.671875 -17.25 "/></g></g></g><g fill="#ffffff" fill-opacity="1"><g transform="translate(223.691711, 106.052379)"><g><path d="M 50.734375 -28.28125 C 51.203125 -29.8125 52.085938 -30.960938 53.390625 -31.734375 C 54.691406 -32.503906 56.046875 -32.890625 57.453125 -32.890625 C 58.992188 -32.890625 60.347656 -32.46875 61.515625 -31.625 C 62.679688 -30.789062 63.265625 -29.609375 63.265625 -28.078125 C 63.265625 -27.410156 63.128906 -26.707031 62.859375 -25.96875 C 60.660156 -19.613281 57.585938 -14.53125 53.640625 -10.71875 C 49.691406 -6.914062 45.34375 -4.175781 40.59375 -2.5 C 35.851562 -0.832031 31.144531 0 26.46875 0 C 21.59375 0 17.195312 -0.785156 13.28125 -2.359375 C 9.375 -3.929688 6.285156 -6.171875 4.015625 -9.078125 C 1.742188 -11.984375 0.609375 -15.40625 0.609375 -19.34375 C 0.609375 -20.488281 0.722656 -21.660156 0.953125 -22.859375 C 1.179688 -24.066406 1.5 -25.269531 1.90625 -26.46875 L 7.828125 -43.609375 C 9.554688 -48.628906 12.394531 -52.425781 16.34375 -55 C 20.289062 -57.570312 24.503906 -58.859375 28.984375 -58.859375 C 32.785156 -58.859375 36.085938 -58.117188 38.890625 -56.640625 C 41.703125 -55.171875 43.894531 -53.164062 45.46875 -50.625 C 47.039062 -48.09375 47.828125 -45.222656 47.828125 -42.015625 C 47.828125 -40.335938 47.5625 -38.5 47.03125 -36.5 C 45.6875 -32.019531 43.175781 -28.441406 39.5 -25.765625 C 35.820312 -23.085938 31.710938 -21.75 27.171875 -21.75 C 25.160156 -21.75 23.269531 -22.035156 21.5 -22.609375 C 19.726562 -23.179688 18.109375 -23.898438 16.640625 -24.765625 L 15.84375 -22.859375 C 15.644531 -22.390625 15.507812 -21.921875 15.4375 -21.453125 C 15.375 -20.984375 15.34375 -20.515625 15.34375 -20.046875 C 15.34375 -17.773438 16.410156 -15.851562 18.546875 -14.28125 C 20.679688 -12.71875 23.585938 -11.9375 27.265625 -11.9375 C 30.140625 -11.9375 33.097656 -12.484375 36.140625 -13.578125 C 39.179688 -14.679688 42.003906 -16.4375 44.609375 -18.84375 C 47.222656 -21.25 49.265625 -24.394531 50.734375 -28.28125 Z M 28.671875 -47.03125 C 27.535156 -47.03125 26.398438 -46.59375 25.265625 -45.71875 C 24.128906 -44.851562 23.296875 -43.648438 22.765625 -42.109375 L 20.65625 -36.09375 C 22.0625 -35.289062 23.800781 -34.890625 25.875 -34.890625 C 27.40625 -34.890625 28.835938 -35.222656 30.171875 -35.890625 C 31.515625 -36.554688 32.421875 -37.726562 32.890625 -39.40625 C 33.148438 -40.132812 33.28125 -40.9375 33.28125 -41.8125 C 33.28125 -43.28125 32.863281 -44.515625 32.03125 -45.515625 C 31.195312 -46.523438 30.078125 -47.03125 28.671875 -47.03125 Z M 28.671875 -47.03125 "/></g></g></g><g fill="#ffffff" fill-opacity="1"><g transform="translate(271.912529, 106.052379)"><g><path d="M 13.734375 -16.34375 C 13.671875 -16.070312 13.585938 -15.769531 13.484375 -15.4375 C 13.378906 -15.101562 13.328125 -14.835938 13.328125 -14.640625 C 13.328125 -13.898438 13.59375 -13.265625 14.125 -12.734375 C 14.664062 -12.203125 15.4375 -11.9375 16.4375 -11.9375 C 18.78125 -11.9375 21.304688 -13.285156 24.015625 -15.984375 C 26.722656 -18.691406 29.210938 -23.054688 31.484375 -29.078125 C 32.222656 -30.953125 33.191406 -32.289062 34.390625 -33.09375 C 35.597656 -33.894531 36.832031 -34.296875 38.09375 -34.296875 C 39.632812 -34.296875 41.003906 -33.773438 42.203125 -32.734375 C 43.410156 -31.703125 44.015625 -30.382812 44.015625 -28.78125 C 44.015625 -28.175781 43.914062 -27.503906 43.71875 -26.765625 C 41.375 -19.816406 38.582031 -14.40625 35.34375 -10.53125 C 32.101562 -6.65625 28.742188 -3.929688 25.265625 -2.359375 C 21.785156 -0.785156 18.441406 0 15.234375 0 C 12.296875 0 9.570312 -0.550781 7.0625 -1.65625 C 4.5625 -2.757812 2.554688 -4.378906 1.046875 -6.515625 C -0.453125 -8.648438 -1.203125 -11.257812 -1.203125 -14.34375 C -1.203125 -16.414062 -0.800781 -18.585938 0 -20.859375 L 20.859375 -80.40625 C 22.390625 -84.820312 25.03125 -87.03125 28.78125 -87.03125 C 30.3125 -87.03125 31.796875 -86.460938 33.234375 -85.328125 C 34.671875 -84.191406 35.390625 -82.65625 35.390625 -80.71875 C 35.390625 -79.644531 35.191406 -78.507812 34.796875 -77.3125 Z M 13.734375 -16.34375 "/></g></g></g><g fill="#ffffff" fill-opacity="1"><g transform="translate(300.584408, 106.052379)"><g><path d="M 13.734375 -16.34375 C 13.671875 -16.070312 13.585938 -15.769531 13.484375 -15.4375 C 13.378906 -15.101562 13.328125 -14.835938 13.328125 -14.640625 C 13.328125 -13.898438 13.59375 -13.265625 14.125 -12.734375 C 14.664062 -12.203125 15.4375 -11.9375 16.4375 -11.9375 C 18.78125 -11.9375 21.304688 -13.285156 24.015625 -15.984375 C 26.722656 -18.691406 29.210938 -23.054688 31.484375 -29.078125 C 32.222656 -30.953125 33.191406 -32.289062 34.390625 -33.09375 C 35.597656 -33.894531 36.832031 -34.296875 38.09375 -34.296875 C 39.632812 -34.296875 41.003906 -33.773438 42.203125 -32.734375 C 43.410156 -31.703125 44.015625 -30.382812 44.015625 -28.78125 C 44.015625 -28.175781 43.914062 -27.503906 43.71875 -26.765625 C 41.375 -19.816406 38.582031 -14.40625 35.34375 -10.53125 C 32.101562 -6.65625 28.742188 -3.929688 25.265625 -2.359375 C 21.785156 -0.785156 18.441406 0 15.234375 0 C 12.296875 0 9.570312 -0.550781 7.0625 -1.65625 C 4.5625 -2.757812 2.554688 -4.378906 1.046875 -6.515625 C -0.453125 -8.648438 -1.203125 -11.257812 -1.203125 -14.34375 C -1.203125 -16.414062 -0.800781 -18.585938 0 -20.859375 L 20.859375 -80.40625 C 22.390625 -84.820312 25.03125 -87.03125 28.78125 -87.03125 C 30.3125 -87.03125 31.796875 -86.460938 33.234375 -85.328125 C 34.671875 -84.191406 35.390625 -82.65625 35.390625 -80.71875 C 35.390625 -79.644531 35.191406 -78.507812 34.796875 -77.3125 Z M 13.734375 -16.34375 "/></g></g></g><g clip-path="url(#1567535cef)"><g fill="#ffffff" fill-opacity="1"><g transform="translate(329.256286, 106.052379)"><g><path d="M 42.40625 -20.953125 C 42.613281 -20.890625 42.847656 -20.859375 43.109375 -20.859375 C 43.378906 -20.859375 43.613281 -20.859375 43.8125 -20.859375 C 46.757812 -20.859375 49.351562 -21.84375 51.59375 -23.8125 C 53.832031 -25.78125 55.484375 -28.304688 56.546875 -31.390625 C 57.085938 -33.253906 57.988281 -34.601562 59.25 -35.4375 C 60.519531 -36.28125 61.828125 -36.703125 63.171875 -36.703125 C 64.640625 -36.703125 65.941406 -36.195312 67.078125 -35.1875 C 68.210938 -34.1875 68.78125 -32.75 68.78125 -30.875 C 68.78125 -30.070312 68.613281 -29.070312 68.28125 -27.875 C 67.144531 -24.394531 65.40625 -21.21875 63.0625 -18.34375 C 60.726562 -15.46875 57.90625 -13.175781 54.59375 -11.46875 C 51.28125 -9.769531 47.65625 -8.921875 43.71875 -8.921875 C 41.644531 -8.921875 39.640625 -9.1875 37.703125 -9.71875 C 35.628906 -6.113281 32.90625 -3.59375 29.53125 -2.15625 C 26.15625 -0.71875 22.492188 0 18.546875 0 C 15.140625 0 11.984375 -0.664062 9.078125 -2 C 6.171875 -3.34375 3.8125 -5.28125 2 -7.8125 C 0.195312 -10.351562 -0.703125 -13.363281 -0.703125 -16.84375 C -0.703125 -17.976562 -0.597656 -19.144531 -0.390625 -20.34375 C -0.191406 -21.550781 0.140625 -22.789062 0.609375 -24.0625 L 7.921875 -44.71875 C 8.992188 -47.726562 10.628906 -50.285156 12.828125 -52.390625 C 15.035156 -54.492188 17.578125 -56.097656 20.453125 -57.203125 C 23.328125 -58.304688 26.335938 -58.859375 29.484375 -58.859375 C 33.085938 -58.859375 36.34375 -58.15625 39.25 -56.75 C 42.15625 -55.34375 44.460938 -53.351562 46.171875 -50.78125 C 47.878906 -48.207031 48.734375 -45.21875 48.734375 -41.8125 C 48.734375 -40.476562 48.460938 -38.773438 47.921875 -36.703125 C 47.390625 -34.628906 46.753906 -32.640625 46.015625 -30.734375 C 45.285156 -28.828125 44.617188 -27.441406 44.015625 -26.578125 C 43.347656 -25.566406 42.679688 -24.828125 42.015625 -24.359375 C 42.210938 -23.421875 42.328125 -22.601562 42.359375 -21.90625 C 42.390625 -21.207031 42.40625 -20.890625 42.40625 -20.953125 Z M 33.09375 -36.390625 C 33.425781 -37.460938 33.722656 -38.550781 33.984375 -39.65625 C 34.253906 -40.757812 34.390625 -41.742188 34.390625 -42.609375 C 34.390625 -43.742188 33.921875 -44.765625 32.984375 -45.671875 C 32.046875 -46.578125 30.8125 -47.03125 29.28125 -47.03125 C 27.738281 -47.03125 26.195312 -46.578125 24.65625 -45.671875 C 23.125 -44.765625 22.054688 -43.476562 21.453125 -41.8125 L 14.34375 -21.453125 C 14.132812 -20.984375 13.929688 -20.3125 13.734375 -19.4375 C 13.535156 -18.570312 13.4375 -17.675781 13.4375 -16.75 C 13.4375 -15.539062 13.769531 -14.4375 14.4375 -13.4375 C 15.101562 -12.4375 16.40625 -11.9375 18.34375 -11.9375 C 19.882812 -11.9375 21.320312 -12.367188 22.65625 -13.234375 C 24 -14.097656 25.003906 -15.398438 25.671875 -17.140625 C 24.734375 -17.941406 23.894531 -18.859375 23.15625 -19.890625 C 22.425781 -20.929688 22.023438 -22.289062 21.953125 -23.96875 C 21.953125 -25.96875 22.4375 -27.753906 23.40625 -29.328125 C 24.375 -30.898438 25.660156 -32.101562 27.265625 -32.9375 C 28.867188 -33.769531 30.578125 -34.085938 32.390625 -33.890625 C 32.453125 -34.285156 32.550781 -34.679688 32.6875 -35.078125 C 32.820312 -35.484375 32.957031 -35.921875 33.09375 -36.390625 Z M 33.09375 -36.390625 "/></g></g></g></g></g></g></svg>